<?xml version="1.0" encoding="UTF-8"?>
<svg id="Calque_2" data-name="Calque 2" xmlns="http://www.w3.org/2000/svg" viewBox="0 0 391.25 247.1">
  <defs>
    <style>
      .cls-1 {
        fill: #93604c;
      }
    </style>
  </defs>
  <g id="Calque_1-2" data-name="Calque 1">
    <path class="cls-1" d="M72.62,188.12l11.98,33.53c3.57,10-.65,20.63-10.3,24.21-10.34,3.84-20.58-1.52-24.28-11.97l-11.8-33.24-13.23,4.34c-10.37,3.4-21.22-2.97-24.12-12.99-3.01-10.4,2.19-20.6,13.07-24.49l211.8-75.75c-4.41-42.41,23.46-80.15,63.45-89.54,41.13-9.66,82.88,13.02,97.09,52.34,14.29,39.52-3.03,83.56-40.16,102.38-37.8,19.16-83.79,7.24-107.27-28.31l-112.04,40.12,8.51,24.18c3.78,9.19-.19,19.53-9.17,23.68-8.22,3.8-20.44,1-23.96-8.53l-9.93-26.9-19.62,6.94ZM356.01,83.02c0-26.37-21.38-47.75-47.75-47.75s-47.75,21.38-47.75,47.75,21.38,47.75,47.75,47.75,47.75-21.38,47.75-47.75Z"/>
  </g>
</svg>